<?xml version="1.0" encoding="utf-8"?>
<!-- Generator: Adobe Illustrator 24.2.3, SVG Export Plug-In . SVG Version: 6.00 Build 0)  -->
<svg version="1.1" id="Layer_1" xmlns="http://www.w3.org/2000/svg" xmlns:xlink="http://www.w3.org/1999/xlink" x="0px" y="0px"
	 viewBox="0 0 53.41 56.62" style="enable-background:new 0 0 53.41 56.62;" xml:space="preserve">
<style type="text/css">
	.st0{fill:#4999AF;}
</style>
<g id="Layer_2_1_">
	<g>
		<path class="st0" d="M23,21.34l-5.3,2.93v-1.16c0-0.89-0.72-1.6-1.6-1.6h-5.08c-0.89,0-1.6,0.72-1.6,1.6v5.75l-1.74,0.96
			c-0.15,0.08-0.24,0.24-0.24,0.41v5.32c0,0.35,0.37,0.58,0.69,0.42l1.99-1.01v12.18c0,0.89,0.72,1.6,1.6,1.6h22.57
			c0.89,0,1.6-0.72,1.6-1.6v-12l1.61,0.84c0.31,0.16,0.69-0.06,0.69-0.42v-5.4c0-0.17-0.09-0.33-0.24-0.41L23,21.34z M11.7,23.8
			h3.71v1.74l-3.71,2.05V23.8z M19.49,46.46h-4.15v-8.36c0-1.18,0.9-2.11,2.04-2.11c1.16,0,2.11,0.95,2.11,2.11V46.46z M33.59,46.46
			H21.78v-8.36c0-2.43-1.97-4.4-4.4-4.4c-2.43,0-4.33,1.93-4.33,4.4v8.36H12.4V33.8l10.59-5.39l10.6,5.54V46.46L33.59,46.46z
			 M35.89,32.57L23,25.83L9.72,32.59V31.3l13.27-7.34l12.9,7.27V32.57z"/>
		<path class="st0" d="M31.22,42.49h-6.89V37.2c0-2.18,1.45-3.76,3.44-3.76s3.44,1.58,3.44,3.76V42.49L31.22,42.49z M26.63,40.2h2.3
			v-3c0-0.25-0.05-1.47-1.15-1.47c-1.1,0-1.15,1.23-1.15,1.47V40.2L26.63,40.2z"/>
		<path class="st0" d="M35.8,25.65l-0.15-2.79c-0.01-0.16-0.14-0.29-0.31-0.29h-4.1c-0.17,0-0.31-0.14-0.31-0.31v-1.67
			c0-0.17,0.14-0.31,0.31-0.31h6.27c0.16,0,0.3,0.13,0.31,0.29l0.08,1.43c0.01,0.27,0.33,0.39,0.52,0.21l1.9-1.85
			c0.06-0.05,0.14-0.09,0.22-0.09h2.84c0.17,0,0.31-0.14,0.31-0.31v-9.5c0-0.17-0.14-0.31-0.31-0.31H24.74
			c-0.17,0-0.31,0.14-0.31,0.31v5.46c0,0.17-0.14,0.31-0.31,0.31h-1.67c-0.17,0-0.31-0.14-0.31-0.31V9.78
			c0-1.06,0.86-1.91,1.91-1.91h20.02c1.06,0,1.91,0.86,1.91,1.91v10.87c0,1.06-0.86,1.91-1.91,1.91h-2.6
			c-0.08,0-0.16,0.03-0.22,0.09l-3.77,3.66C36.87,26.91,35.85,26.51,35.8,25.65z"/>
		<path class="st0" d="M29.59,18.39c-1.83,0-3.33-1.49-3.33-3.33s1.49-3.33,3.33-3.33c1.83,0,3.33,1.49,3.33,3.33
			S31.42,18.39,29.59,18.39z M29.59,14.03c-0.57,0-1.04,0.46-1.04,1.04c0,0.57,0.46,1.04,1.04,1.04c0.57,0,1.04-0.46,1.04-1.04
			S30.16,14.03,29.59,14.03z"/>
		<path class="st0" d="M38.83,18.39c-1.83,0-3.33-1.49-3.33-3.33s1.49-3.33,3.33-3.33c1.83,0,3.33,1.49,3.33,3.33
			S40.66,18.39,38.83,18.39z M38.83,14.03c-0.57,0-1.04,0.46-1.04,1.04c0,0.57,0.46,1.04,1.04,1.04s1.04-0.46,1.04-1.04
			S39.4,14.03,38.83,14.03z"/>
	</g>
</g>
</svg>
