<?xml version="1.0" encoding="utf-8"?>
<!-- Generator: Adobe Illustrator 24.2.3, SVG Export Plug-In . SVG Version: 6.00 Build 0)  -->
<svg version="1.1" id="Layer_1" xmlns="http://www.w3.org/2000/svg" xmlns:xlink="http://www.w3.org/1999/xlink" x="0px" y="0px"
	 viewBox="0 0 53.41 56.62" style="enable-background:new 0 0 53.41 56.62;" xml:space="preserve">
<style type="text/css">
	.st0{fill:#4999AF;}
	.st1{fill:#4999AF;stroke:#000000;stroke-width:10;stroke-miterlimit:10;}
</style>
<g>
	<path class="st0" d="M41.04,8.15H16.28c-1.17,0-2.13,0.96-2.13,2.13v17.96c0,1.17,0.96,2.13,2.13,2.13H29.3l0.14,5.04l5.63-5.04
		h5.97c1.17,0,2.13-0.95,2.13-2.13V10.28C43.17,9.11,42.21,8.15,41.04,8.15z M16.26,27.18V11.31c0-0.58,0.47-1.05,1.05-1.05H40
		c0.58,0,1.05,0.47,1.05,1.05V27.2c0,0.58-0.47,1.05-1.05,1.05h-5.74l-2.84,2.54l-0.07-2.54l-14.04-0.02
		C16.73,28.24,16.26,27.77,16.26,27.18z"/>
	<path class="st1" d="M30.43,30.86"/>
	<path class="st0" d="M45.16,38.34h-9.08c-0.1-0.91-0.87-1.62-1.8-1.62h-5.56v-0.69c0-1-0.81-1.81-1.81-1.81h-7.89
		c-0.42,0-0.83,0.15-1.16,0.42l-0.43,0.35v-0.31c0-0.81-0.66-1.48-1.48-1.48H9.97c-0.81,0-1.48,0.66-1.48,1.48v12.48
		c0,0.81,0.66,1.48,1.48,1.48h5.98c0.81,0,1.48-0.66,1.48-1.48v-0.09l13.43,1.51c0.12,0.01,0.23,0.02,0.35,0.02
		c0.29,0,0.58-0.04,0.86-0.12l13.95-4.05c1.32-0.38,2.24-1.61,2.24-2.98C48.26,39.73,46.87,38.34,45.16,38.34z M15.32,46.52H10.6
		V35.31h4.72V46.52z M45.44,42.39l-13.95,4.06c-0.13,0.04-0.26,0.05-0.39,0.03l-13.67-1.54v-7.22l1.69-1.4h7.49v0.69
		c0,1,0.81,1.81,1.81,1.81h5.56v1H27.4v2.11h6.88c0.89,0,1.63-0.64,1.78-1.49h9.1c0.55,0,0.99,0.45,0.99,0.99
		C46.15,41.88,45.86,42.27,45.44,42.39z"/>
	<path class="st0" d="M28.7,11.51l-8.5,4.83v5.71l1.74-0.89v5.72h13.51V21.2l1.67,0.86v-5.71L28.7,11.51z M22.31,17.57l6.38-3.63
		l6.32,3.63v1.03l-6.31-3.26l-6.39,3.26V17.57z M33.34,24.77h-9.29v-4.69l4.64-2.37l4.65,2.4V24.77z"/>
	<path class="st1" d="M29.95,18.42"/>
</g>
</svg>
