<?xml version="1.0" encoding="utf-8"?>
<!-- Generator: Adobe Illustrator 24.2.3, SVG Export Plug-In . SVG Version: 6.00 Build 0)  -->
<svg version="1.1" id="Layer_1" xmlns="http://www.w3.org/2000/svg" xmlns:xlink="http://www.w3.org/1999/xlink" x="0px" y="0px"
	 viewBox="0 0 53.41 56.62" style="enable-background:new 0 0 53.41 56.62;" xml:space="preserve">
<style type="text/css">
	.st0{fill:#4999AF;}
</style>
<g>
	<path class="st0" d="M45.99,8.15H9.06c-1.25,0-2.27,1.02-2.27,2.27v26.42c0,1.25,1.02,2.27,2.27,2.27h14.88l-1.67,7.2H19.5
		c-0.32,0-0.57,0.26-0.57,0.57V48c0,0.32,0.26,0.57,0.57,0.57h16.04c0.32,0,0.57-0.26,0.57-0.57v-1.13c0-0.32-0.26-0.57-0.57-0.57
		h-2.77l-1.73-7.2h14.95c1.25,0,2.27-1.02,2.27-2.27V10.42C48.25,9.17,47.23,8.15,45.99,8.15z M44.85,36.84H10.19
		c-0.63,0-1.13-0.51-1.13-1.13v-1.07h36.92v1.07C45.98,36.33,45.47,36.84,44.85,36.84z M45.98,32.36H9.06V11.55
		c0-0.63,0.51-1.13,1.13-1.13h34.66c0.63,0,1.13,0.51,1.13,1.13L45.98,32.36z"/>
	<path class="st0" d="M40.62,12.17h-19.3c-0.87,0-1.59,0.71-1.59,1.59v2.84h-5.35c-0.87,0-1.59,0.71-1.59,1.59v10.45
		c0,0.87,0.71,1.59,1.59,1.59h19.3c0.87,0,1.59-0.71,1.59-1.59v-2.77h5.34c0.87,0,1.59-0.71,1.59-1.59V13.75
		C42.21,12.88,41.5,12.17,40.62,12.17z M32.56,27.95H15.52c-0.25,0-0.45-0.2-0.45-0.45v-8.18c0-0.25,0.2-0.45,0.45-0.45h17.03
		c0.25,0,0.45,0.2,0.45,0.45v8.18C33.01,27.75,32.81,27.95,32.56,27.95z M39.49,23.6h-4.21v-5.42c0-0.87-0.71-1.59-1.59-1.59H22
		v-1.7c0-0.25,0.2-0.45,0.45-0.45h17.03c0.25,0,0.45,0.2,0.45,0.45v8.26C39.94,23.39,39.74,23.6,39.49,23.6z"/>
</g>
</svg>
