<?xml version="1.0" encoding="utf-8"?>
<!-- Generator: Adobe Illustrator 24.2.3, SVG Export Plug-In . SVG Version: 6.00 Build 0)  -->
<svg version="1.1" id="Layer_1" xmlns="http://www.w3.org/2000/svg" xmlns:xlink="http://www.w3.org/1999/xlink" x="0px" y="0px"
	 viewBox="0 0 53.41 56.62" style="enable-background:new 0 0 53.41 56.62;" xml:space="preserve">
<style type="text/css">
	.st0{fill:#4999AF;}
</style>
<g>
	<g>
		<path class="st0" d="M44.18,25.97H11.21c-2.25,0-4.08-1.83-4.08-4.08v-9.66c0-2.25,1.83-4.08,4.08-4.08h32.97
			c2.25,0,4.08,1.83,4.08,4.08v9.66C48.26,24.14,46.43,25.97,44.18,25.97z M11.21,10.19c-1.13,0-2.04,0.92-2.04,2.04v9.66
			c0,1.13,0.92,2.04,2.04,2.04h32.97c1.13,0,2.04-0.92,2.04-2.04v-9.66c0-1.13-0.92-2.04-2.04-2.04H11.21z"/>
	</g>
	<path class="st0" d="M42.2,21.98L42.2,21.98c-0.75,0-1.36-0.61-1.36-1.36v0c0-0.75,0.61-1.36,1.36-1.36h0
		c0.75,0,1.36,0.61,1.36,1.36v0C43.56,21.37,42.95,21.98,42.2,21.98z"/>
	<path class="st0" d="M10.97,26.4c-0.56,0-1.02,0.46-1.02,1.02l0,0c0,10.34,1.37,20.43,17.67,20.43c7.78,0,12.61-1.96,15.2-6.17
		c2.28-3.71,2.47-8.66,2.47-14.26l0,0c0-0.56-0.46-1.02-1.02-1.02H10.97z M22.2,45.34c-0.47-0.1-0.81-0.52-0.81-1V35.9
		c0-2.84,2.8-5.15,6.24-5.15c3.44,0,6.24,2.31,6.24,5.15v8.49c0,0.49-0.35,0.92-0.83,1c-1.58,0.28-3.38,0.42-5.4,0.42
		C25.59,45.81,23.79,45.66,22.2,45.34z M41.09,40.61c-0.88,1.43-2.11,2.56-3.71,3.39c-0.67,0.35-1.47-0.16-1.47-0.91V35.9
		c0-3.96-3.71-7.19-8.28-7.19c-4.57,0-8.28,3.22-8.28,7.19v6.97c0,0.79-0.86,1.28-1.55,0.87c-1.37-0.8-2.46-1.85-3.3-3.15
		c-1.88-2.91-2.37-6.96-2.48-11.11c-0.01-0.57,0.45-1.05,1.02-1.05h29.18c0.57,0,1.03,0.47,1.02,1.04
		C43.18,33.91,42.83,37.78,41.09,40.61z"/>
	<path class="st0" d="M27.62,42.82c-2.74,0-4.97-2.23-4.97-4.97c0-2.74,2.23-4.97,4.97-4.97s4.97,2.23,4.97,4.97
		C32.59,40.59,30.36,42.82,27.62,42.82z M27.62,34.93c-1.61,0-2.92,1.31-2.92,2.92c0,1.61,1.31,2.92,2.92,2.92
		c1.61,0,2.92-1.31,2.92-2.92C30.55,36.24,29.24,34.93,27.62,34.93z"/>
</g>
</svg>
